<svg xmlns="http://www.w3.org/2000/svg" viewBox="0 0 512 512"><title>Lock</title><g id="Lock"><g id="Lock-2" data-name="Lock"><path d="M256,269.9527a18.9277,18.9277,0,0,0-9.4483,35.3412v21.0582h18.8964V305.2939A18.931,18.931,0,0,0,256,269.9527Z"/><path d="M256.0091,178.0807a28.9125,28.9125,0,0,0-28.881,28.881v30.753h57.753v-30.753A28.9171,28.9171,0,0,0,256.0091,178.0807Z"/><path d="M256,73.8247c-100.6174,0-182.18,81.5625-182.18,182.1708A182.1822,182.1822,0,0,0,256,438.1753c100.6082,0,182.18-81.5706,182.18-182.18S356.6083,73.8247,256,73.8247Zm77.3873,254.4264a21.4087,21.4087,0,0,1-21.41,21.41H200.0317a21.4037,21.4037,0,0,1-21.411-21.41V259.1248a21.4187,21.4187,0,0,1,17.0074-20.9529v-31.21a60.3765,60.3765,0,1,1,120.753,0v31.21a21.42,21.42,0,0,1,16.9982,20.9529v69.1263Z"/></g></g></svg>