<svg xmlns="http://www.w3.org/2000/svg" xmlns:xlink="http://www.w3.org/1999/xlink" width="500" zoomAndPan="magnify" viewBox="0 0 375 374.999991" height="500" preserveAspectRatio="xMidYMid meet" version="1.0"><defs><g/><clipPath id="070bc81372"><path d="M -94.902344 93.367188 L 93.367188 -94.902344 L 469.902344 281.632812 L 281.632812 469.902344 Z M -94.902344 93.367188 " clip-rule="nonzero"/></clipPath><clipPath id="c7537441e7"><path d="M -0.765625 -0.765625 L 469.902344 281.632812 L 281.632812 469.902344 Z M -0.765625 -0.765625 " clip-rule="nonzero"/></clipPath><clipPath id="6de8152c37"><path d="M 0 0 L 375 0 L 375 375 L 0 375 Z M 0 0 " clip-rule="nonzero"/></clipPath><clipPath id="3fef30187a"><path d="M -94.902344 93.367188 L 93.367188 -94.902344 L 469.902344 281.632812 L 281.632812 469.902344 Z M -94.902344 93.367188 " clip-rule="nonzero"/></clipPath><clipPath id="08355a56f2"><path d="M -0.765625 -0.765625 L 469.902344 281.632812 L 281.632812 469.902344 Z M -0.765625 -0.765625 " clip-rule="nonzero"/></clipPath><clipPath id="a35cd22665"><rect x="0" width="375" y="0" height="375"/></clipPath><clipPath id="897945362e"><path d="M -120.160156 67.015625 L 120.160156 -71.734375 L 386.820312 390.136719 L 146.5 528.886719 Z M -120.160156 67.015625 " clip-rule="nonzero"/></clipPath><clipPath id="27f62c41e7"><path d="M 0 -2.359375 L 386.410156 389.425781 L 146.089844 528.175781 Z M 0 -2.359375 " clip-rule="nonzero"/></clipPath><clipPath id="7b77abceae"><path d="M 0 0 L 375 0 L 375 375 L 0 375 Z M 0 0 " clip-rule="nonzero"/></clipPath><clipPath id="b0e11873ba"><path d="M -120.160156 67.015625 L 120.160156 -71.734375 L 386.820312 390.136719 L 146.5 528.886719 Z M -120.160156 67.015625 " clip-rule="nonzero"/></clipPath><clipPath id="5e8de5eb47"><path d="M 0 -2.359375 L 386.410156 389.425781 L 146.089844 528.175781 Z M 0 -2.359375 " clip-rule="nonzero"/></clipPath><clipPath id="2fc58e35db"><rect x="0" width="375" y="0" height="375"/></clipPath><clipPath id="7b2feeabe1"><path d="M 0 0 L 273 0 L 273 375 L 0 375 Z M 0 0 " clip-rule="nonzero"/></clipPath><clipPath id="30073582ff"><path d="M -133.09375 35.257812 L 134.953125 -36.566406 L 272.984375 478.582031 L 4.941406 550.40625 Z M -133.09375 35.257812 " clip-rule="nonzero"/></clipPath><clipPath id="6c9beced85"><path d="M 0.929688 -0.652344 L 272.773438 477.789062 L 4.730469 549.613281 Z M 0.929688 -0.652344 " clip-rule="nonzero"/></clipPath><clipPath id="9b8d14ce0d"><path d="M 0.71875 0 L 272.878906 0 L 272.878906 375 L 0.71875 375 Z M 0.71875 0 " clip-rule="nonzero"/></clipPath><clipPath id="ed28be1bbc"><path d="M -133.09375 35.257812 L 134.953125 -36.566406 L 272.984375 478.582031 L 4.941406 550.40625 Z M -133.09375 35.257812 " clip-rule="nonzero"/></clipPath><clipPath id="9f34e36a54"><path d="M 0.929688 -0.652344 L 272.773438 477.789062 L 4.730469 549.613281 Z M 0.929688 -0.652344 " clip-rule="nonzero"/></clipPath><clipPath id="383351a6e6"><rect x="0" width="273" y="0" height="375"/></clipPath><clipPath id="d73f92c66e"><path d="M 0 0 L 138.75 0 L 138.75 375 L 0 375 Z M 0 0 " clip-rule="nonzero"/></clipPath><clipPath id="58d10faedc"><path d="M 0 -9.726562 L 138.75 522.773438 L -138.75 522.773438 Z M 0 -9.726562 " clip-rule="nonzero"/></clipPath><clipPath id="5145fab67b"><path d="M 0 0 L 138.75 0 L 138.75 375 L 0 375 Z M 0 0 " clip-rule="nonzero"/></clipPath><clipPath id="0a945ff6f1"><path d="M 0 -9.726562 L 138.75 522.773438 L -138.75 522.773438 Z M 0 -9.726562 " clip-rule="nonzero"/></clipPath><clipPath id="3e86485ea1"><rect x="0" width="139" y="0" height="375"/></clipPath><clipPath id="54e5bb4eb4"><path d="M -70.636719 120.160156 L 68.113281 -120.160156 L 529.980469 146.5 L 391.230469 386.820312 Z M -70.636719 120.160156 " clip-rule="nonzero"/></clipPath><clipPath id="2b10e8eec5"><path d="M -1.261719 0 L 529.269531 146.089844 L 390.519531 386.410156 Z M -1.261719 0 " clip-rule="nonzero"/></clipPath><clipPath id="b30a079e3a"><path d="M 0 0 L 375 0 L 375 375 L 0 375 Z M 0 0 " clip-rule="nonzero"/></clipPath><clipPath id="3501055e1d"><path d="M -70.636719 120.160156 L 68.113281 -120.160156 L 529.980469 146.5 L 391.230469 386.820312 Z M -70.636719 120.160156 " clip-rule="nonzero"/></clipPath><clipPath id="8904072895"><path d="M -1.261719 0 L 529.269531 146.089844 L 390.519531 386.410156 Z M -1.261719 0 " clip-rule="nonzero"/></clipPath><clipPath id="6ec0e34084"><rect x="0" width="375" y="0" height="375"/></clipPath><clipPath id="77f82ce34a"><path d="M 0 0 L 375 0 L 375 273 L 0 273 Z M 0 0 " clip-rule="nonzero"/></clipPath><clipPath id="33923eebdf"><path d="M -36.699219 134.21875 L 35.125 -133.824219 L 550.273438 4.210938 L 478.449219 272.253906 Z M -36.699219 134.21875 " clip-rule="nonzero"/></clipPath><clipPath id="a7e6b1e711"><path d="M -0.785156 0.199219 L 549.480469 3.996094 L 477.65625 272.042969 Z M -0.785156 0.199219 " clip-rule="nonzero"/></clipPath><clipPath id="b2185a52fa"><path d="M 0 0 L 375 0 L 375 272 L 0 272 Z M 0 0 " clip-rule="nonzero"/></clipPath><clipPath id="0ddc188e49"><path d="M -36.699219 134.21875 L 35.125 -133.824219 L 550.273438 4.210938 L 478.449219 272.253906 Z M -36.699219 134.21875 " clip-rule="nonzero"/></clipPath><clipPath id="12c6a3f6d6"><path d="M -0.785156 0.199219 L 549.480469 3.996094 L 477.65625 272.042969 Z M -0.785156 0.199219 " clip-rule="nonzero"/></clipPath><clipPath id="1f51b7237a"><rect x="0" width="375" y="0" height="273"/></clipPath><clipPath id="7aa4240097"><path d="M 0 0 L 375 0 L 375 138.75 L 0 138.75 Z M 0 0 " clip-rule="nonzero"/></clipPath><clipPath id="f6972ebfbc"><path d="M 0 0 L 532.5 -138.75 L 532.5 138.75 Z M 0 0 " clip-rule="nonzero"/></clipPath><clipPath id="8515d98742"><path d="M 0 0 L 375 0 L 375 138.75 L 0 138.75 Z M 0 0 " clip-rule="nonzero"/></clipPath><clipPath id="9367421e03"><path d="M 0 0 L 532.5 -138.75 L 532.5 138.75 Z M 0 0 " clip-rule="nonzero"/></clipPath><clipPath id="b25ca94dc9"><rect x="0" width="375" y="0" height="139"/></clipPath></defs><rect x="-37.5" width="450" fill="#ffffff" y="-37.499999" height="449.999989" fill-opacity="1"/><rect x="-37.5" width="450" fill="#ffffff" y="-37.499999" height="449.999989" fill-opacity="1"/><g clip-path="url(#070bc81372)"><g clip-path="url(#c7537441e7)"><g transform="matrix(1, 0, 0, 1, 0, 0)"><g clip-path="url(#a35cd22665)"><g clip-path="url(#6de8152c37)"><g clip-path="url(#3fef30187a)"><g clip-path="url(#08355a56f2)"><path fill="#5c8fd6" d="M -94.902344 93.367188 L 93.367188 -94.902344 L 469.902344 281.632812 L 281.632812 469.902344 Z M -94.902344 93.367188 " fill-opacity="1" fill-rule="nonzero"/></g></g></g></g></g></g></g><g clip-path="url(#897945362e)"><g clip-path="url(#27f62c41e7)"><g transform="matrix(1, 0, 0, 1, 0, 0)"><g clip-path="url(#2fc58e35db)"><g clip-path="url(#7b77abceae)"><g clip-path="url(#b0e11873ba)"><g clip-path="url(#5e8de5eb47)"><path fill="#3366cc" d="M -120.160156 67.015625 L 120.160156 -71.734375 L 386.277344 389.195312 L 145.957031 527.945312 Z M -120.160156 67.015625 " fill-opacity="1" fill-rule="nonzero"/></g></g></g></g></g></g></g><g clip-path="url(#7b2feeabe1)"><g clip-path="url(#30073582ff)"><g clip-path="url(#6c9beced85)"><g><g clip-path="url(#383351a6e6)"><g clip-path="url(#9b8d14ce0d)"><g clip-path="url(#ed28be1bbc)"><g clip-path="url(#9f34e36a54)"><path fill="#2947a3" d="M -133.09375 35.257812 L 134.953125 -36.566406 L 272.703125 477.535156 L 4.660156 549.359375 Z M -133.09375 35.257812 " fill-opacity="1" fill-rule="nonzero"/></g></g></g></g></g></g></g></g><g clip-path="url(#d73f92c66e)"><g clip-path="url(#58d10faedc)"><g transform="matrix(1, 0, 0, 1, 0, 0)"><g clip-path="url(#3e86485ea1)"><g clip-path="url(#5145fab67b)"><g clip-path="url(#0a945ff6f1)"><path fill="#1f2e7a" d="M -138.75 -9.726562 L 138.75 -9.726562 L 138.75 522.511719 L -138.75 522.511719 Z M -138.75 -9.726562 " fill-opacity="1" fill-rule="nonzero"/></g></g></g></g></g></g><g clip-path="url(#54e5bb4eb4)"><g clip-path="url(#2b10e8eec5)"><g transform="matrix(1, 0, 0, 1, 0, 0)"><g clip-path="url(#6ec0e34084)"><g clip-path="url(#b30a079e3a)"><g clip-path="url(#3501055e1d)"><g clip-path="url(#8904072895)"><path fill="#85b3e0" d="M -70.636719 120.160156 L 68.113281 -120.160156 L 529.042969 145.957031 L 390.292969 386.277344 Z M -70.636719 120.160156 " fill-opacity="1" fill-rule="nonzero"/></g></g></g></g></g></g></g><g clip-path="url(#77f82ce34a)"><g clip-path="url(#33923eebdf)"><g clip-path="url(#a7e6b1e711)"><g transform="matrix(1, 0, 0, 1, 0, 0)"><g clip-path="url(#1f51b7237a)"><g clip-path="url(#b2185a52fa)"><g clip-path="url(#0ddc188e49)"><g clip-path="url(#12c6a3f6d6)"><path fill="#add1eb" d="M -36.699219 134.21875 L 35.125 -133.824219 L 549.226562 3.929688 L 477.402344 271.972656 Z M -36.699219 134.21875 " fill-opacity="1" fill-rule="nonzero"/></g></g></g></g></g></g></g></g><g clip-path="url(#7aa4240097)"><g clip-path="url(#f6972ebfbc)"><g transform="matrix(1, 0, 0, 1, 0, 0)"><g clip-path="url(#b25ca94dc9)"><g clip-path="url(#8515d98742)"><g clip-path="url(#9367421e03)"><path fill="#d6ebf5" d="M 0 138.75 L 0 -138.75 L 532.234375 -138.75 L 532.234375 138.75 Z M 0 138.75 " fill-opacity="1" fill-rule="nonzero"/></g></g></g></g></g></g><g fill="#e6b319" fill-opacity="1"><g transform="translate(39.296874, 208.873682)"><g><path d="M 53.40625 -142 L 81.40625 -142 L 133.59375 0 L 105.203125 0 L 92 -35.40625 L 42.40625 -35.40625 L 29.40625 0 L 1 0 Z M 87 -54.796875 L 67.40625 -113.40625 L 47 -54.796875 Z M 87 -54.796875 "/></g></g></g><g fill="#a33329" fill-opacity="1"><g transform="translate(210.419537, 208.873682)"><g><path d="M 14.796875 0 L 14.796875 -142 L 77.59375 -142 C 84.132812 -142 90.171875 -140.664062 95.703125 -138 C 101.234375 -135.332031 106.03125 -131.734375 110.09375 -127.203125 C 114.164062 -122.671875 117.300781 -117.601562 119.5 -112 C 121.695312 -106.394531 122.796875 -100.660156 122.796875 -94.796875 C 122.796875 -88.796875 121.757812 -83.03125 119.6875 -77.5 C 117.625 -71.96875 114.660156 -67.132812 110.796875 -63 C 106.929688 -58.863281 102.398438 -55.664062 97.203125 -53.40625 L 129.59375 0 L 99.203125 0 L 70 -47.59375 L 42.40625 -47.59375 L 42.40625 0 Z M 42.40625 -71.796875 L 77 -71.796875 C 80.46875 -71.796875 83.535156 -72.828125 86.203125 -74.890625 C 88.867188 -76.960938 91 -79.734375 92.59375 -83.203125 C 94.195312 -86.671875 95 -90.535156 95 -94.796875 C 95 -99.328125 94.066406 -103.289062 92.203125 -106.6875 C 90.335938 -110.09375 87.96875 -112.796875 85.09375 -114.796875 C 82.226562 -116.796875 79.128906 -117.796875 75.796875 -117.796875 L 42.40625 -117.796875 Z M 42.40625 -71.796875 "/></g></g></g><g fill="#b87414" fill-opacity="1"><g transform="translate(176.800949, 208.873682)"><g><path d="M 11.59375 0 L 11.59375 -28.796875 L 33.59375 -28.796875 L 33.59375 0 Z M 11.59375 0 "/></g></g></g></svg>