<svg xmlns="http://www.w3.org/2000/svg" xmlns:xlink="http://www.w3.org/1999/xlink" width="500" zoomAndPan="magnify" viewBox="0 0 375 374.999991" height="500" preserveAspectRatio="xMidYMid meet" version="1.0"><defs><g/></defs><g fill="#e6b319" fill-opacity="1"><g transform="translate(31.417971, 150.858744)"><g><path d="M 10.8125 0.53125 C 7.382812 0.53125 4.613281 -0.539062 2.5 -2.6875 C 0.0390625 -5.195312 -1.1875 -8.945312 -1.1875 -13.9375 C -1.1875 -16.039062 -0.972656 -18.265625 -0.546875 -20.609375 C -0.117188 -22.953125 0.5 -25.265625 1.3125 -27.546875 C 3.1875 -32.703125 5.753906 -36.863281 9.015625 -40.03125 C 12.765625 -43.632812 17.082031 -45.4375 21.96875 -45.4375 C 24.40625 -45.4375 26.226562 -45.019531 27.4375 -44.1875 C 28.65625 -43.351562 29.265625 -42.25 29.265625 -40.875 L 29.265625 -40.203125 L 30.234375 -45 L 43.203125 -45 L 36.734375 -14.421875 C 36.472656 -13.535156 36.34375 -12.566406 36.34375 -11.515625 C 36.34375 -8.929688 37.570312 -7.640625 40.03125 -7.640625 C 41.675781 -7.640625 43.171875 -8.476562 44.515625 -10.15625 C 45.660156 -11.5625 46.597656 -13.550781 47.328125 -16.125 L 51.109375 -16.125 C 49.492188 -11.550781 47.546875 -7.9375 45.265625 -5.28125 C 43.328125 -3.082031 41.144531 -1.5 38.71875 -0.53125 C 36.925781 0.175781 35.035156 0.53125 33.046875 0.53125 C 30.492188 0.53125 28.460938 -0.160156 26.953125 -1.546875 C 25.453125 -2.941406 24.539062 -5.003906 24.21875 -7.734375 C 22.519531 -5.328125 20.734375 -3.453125 18.859375 -2.109375 C 16.453125 -0.347656 13.769531 0.53125 10.8125 0.53125 Z M 16.65625 -8.171875 C 17.332031 -8.171875 18.039062 -8.347656 18.78125 -8.703125 C 19.53125 -9.054688 20.257812 -9.554688 20.96875 -10.203125 C 22.539062 -11.722656 23.59375 -13.695312 24.125 -16.125 L 28.4375 -36.4375 C 28.4375 -36.726562 28.367188 -37.070312 28.234375 -37.46875 C 28.097656 -37.863281 27.914062 -38.234375 27.6875 -38.578125 C 26.976562 -39.429688 25.992188 -39.859375 24.734375 -39.859375 C 23.535156 -39.859375 22.375 -39.460938 21.25 -38.671875 C 20.125 -37.878906 19.0625 -36.78125 18.0625 -35.375 C 16.300781 -32.820312 14.851562 -29.5 13.71875 -25.40625 C 13.1875 -23.582031 12.785156 -21.785156 12.515625 -20.015625 C 12.253906 -18.242188 12.125 -16.640625 12.125 -15.203125 C 12.125 -12.210938 12.679688 -10.191406 13.796875 -9.140625 C 14.179688 -8.734375 14.609375 -8.46875 15.078125 -8.34375 C 15.546875 -8.226562 16.070312 -8.171875 16.65625 -8.171875 Z M 16.65625 -8.171875 "/></g></g><g transform="translate(78.74707, 150.858744)"><g><path d="M 10.8125 0.53125 C 7.382812 0.53125 4.613281 -0.539062 2.5 -2.6875 C 0.0390625 -5.195312 -1.1875 -8.945312 -1.1875 -13.9375 C -1.1875 -16.039062 -0.972656 -18.265625 -0.546875 -20.609375 C -0.117188 -22.953125 0.5 -25.265625 1.3125 -27.546875 C 3.1875 -32.703125 5.753906 -36.863281 9.015625 -40.03125 C 12.765625 -43.632812 17.082031 -45.4375 21.96875 -45.4375 C 24.40625 -45.4375 26.226562 -45.019531 27.4375 -44.1875 C 28.65625 -43.351562 29.265625 -42.25 29.265625 -40.875 L 29.265625 -40.203125 L 30.234375 -45 L 43.203125 -45 L 36.734375 -14.421875 C 36.472656 -13.535156 36.34375 -12.566406 36.34375 -11.515625 C 36.34375 -8.929688 37.570312 -7.640625 40.03125 -7.640625 C 41.675781 -7.640625 43.171875 -8.476562 44.515625 -10.15625 C 45.660156 -11.5625 46.597656 -13.550781 47.328125 -16.125 L 51.109375 -16.125 C 49.492188 -11.550781 47.546875 -7.9375 45.265625 -5.28125 C 43.328125 -3.082031 41.144531 -1.5 38.71875 -0.53125 C 36.925781 0.175781 35.035156 0.53125 33.046875 0.53125 C 30.492188 0.53125 28.460938 -0.160156 26.953125 -1.546875 C 25.453125 -2.941406 24.539062 -5.003906 24.21875 -7.734375 C 22.519531 -5.328125 20.734375 -3.453125 18.859375 -2.109375 C 16.453125 -0.347656 13.769531 0.53125 10.8125 0.53125 Z M 16.65625 -8.171875 C 17.332031 -8.171875 18.039062 -8.347656 18.78125 -8.703125 C 19.53125 -9.054688 20.257812 -9.554688 20.96875 -10.203125 C 22.539062 -11.722656 23.59375 -13.695312 24.125 -16.125 L 28.4375 -36.4375 C 28.4375 -36.726562 28.367188 -37.070312 28.234375 -37.46875 C 28.097656 -37.863281 27.914062 -38.234375 27.6875 -38.578125 C 26.976562 -39.429688 25.992188 -39.859375 24.734375 -39.859375 C 23.535156 -39.859375 22.375 -39.460938 21.25 -38.671875 C 20.125 -37.878906 19.0625 -36.78125 18.0625 -35.375 C 16.300781 -32.820312 14.851562 -29.5 13.71875 -25.40625 C 13.1875 -23.582031 12.785156 -21.785156 12.515625 -20.015625 C 12.253906 -18.242188 12.125 -16.640625 12.125 -15.203125 C 12.125 -12.210938 12.679688 -10.191406 13.796875 -9.140625 C 14.179688 -8.734375 14.609375 -8.46875 15.078125 -8.34375 C 15.546875 -8.226562 16.070312 -8.171875 16.65625 -8.171875 Z M 16.65625 -8.171875 "/></g></g></g><g fill="#ad1b0e" fill-opacity="1"><g transform="translate(165.055087, 270.847849)"><g><path d="M 6.78125 -50 L 21.1875 -50 L 19.921875 -43.796875 C 22.203125 -45.816406 24.054688 -47.25 25.484375 -48.09375 C 27.703125 -49.363281 29.867188 -50 31.984375 -50 C 34.128906 -50 35.851562 -49.234375 37.15625 -47.703125 C 37.738281 -47.023438 38.175781 -46.238281 38.46875 -45.34375 C 38.769531 -44.445312 38.921875 -43.492188 38.921875 -42.484375 C 38.921875 -41.566406 38.769531 -40.6875 38.46875 -39.84375 C 38.175781 -39 37.738281 -38.234375 37.15625 -37.546875 C 36.507812 -36.828125 35.722656 -36.253906 34.796875 -35.828125 C 33.867188 -35.410156 32.832031 -35.203125 31.6875 -35.203125 C 30.8125 -35.203125 30.113281 -35.347656 29.59375 -35.640625 C 29.070312 -35.929688 28.664062 -36.359375 28.375 -36.921875 C 28.113281 -37.472656 27.929688 -38.007812 27.828125 -38.53125 C 27.535156 -39.925781 27.242188 -40.851562 26.953125 -41.3125 C 26.722656 -41.632812 26.363281 -41.796875 25.875 -41.796875 C 24.476562 -41.796875 23.289062 -41.503906 22.3125 -40.921875 C 21.332031 -40.335938 20.097656 -39.359375 18.609375 -37.984375 L 10.59375 0 L -3.8125 0 Z M 6.78125 -50 "/></g></g></g><g fill="#ad1b0e" fill-opacity="1"><g transform="translate(202.651272, 270.847849)"><g><path d="M 12.015625 0.59375 C 8.203125 0.59375 5.125 -0.597656 2.78125 -2.984375 C 0.0507812 -5.773438 -1.3125 -9.941406 -1.3125 -15.484375 C -1.3125 -17.828125 -1.078125 -20.300781 -0.609375 -22.90625 C -0.140625 -25.507812 0.550781 -28.078125 1.46875 -30.609375 C 3.550781 -36.335938 6.398438 -40.960938 10.015625 -44.484375 C 14.179688 -48.484375 18.984375 -50.484375 24.421875 -50.484375 C 27.117188 -50.484375 29.140625 -50.019531 30.484375 -49.09375 C 31.835938 -48.164062 32.515625 -46.9375 32.515625 -45.40625 L 32.515625 -44.671875 L 33.59375 -50 L 48 -50 L 40.828125 -16.015625 C 40.523438 -15.035156 40.375 -13.960938 40.375 -12.796875 C 40.375 -9.929688 41.742188 -8.5 44.484375 -8.5 C 46.304688 -8.5 47.96875 -9.425781 49.46875 -11.28125 C 50.738281 -12.84375 51.78125 -15.054688 52.59375 -17.921875 L 56.78125 -17.921875 C 55 -12.835938 52.835938 -8.816406 50.296875 -5.859375 C 48.148438 -3.421875 45.722656 -1.664062 43.015625 -0.59375 C 41.035156 0.195312 38.9375 0.59375 36.71875 0.59375 C 33.882812 0.59375 31.628906 -0.175781 29.953125 -1.71875 C 28.273438 -3.269531 27.257812 -5.5625 26.90625 -8.59375 C 25.019531 -5.925781 23.035156 -3.84375 20.953125 -2.34375 C 18.273438 -0.382812 15.296875 0.59375 12.015625 0.59375 Z M 18.5 -9.078125 C 19.25 -9.078125 20.039062 -9.269531 20.875 -9.65625 C 21.707031 -10.050781 22.515625 -10.609375 23.296875 -11.328125 C 25.046875 -13.023438 26.21875 -15.222656 26.8125 -17.921875 L 31.59375 -40.484375 C 31.59375 -40.804688 31.519531 -41.1875 31.375 -41.625 C 31.226562 -42.0625 31.023438 -42.476562 30.765625 -42.875 C 29.984375 -43.8125 28.890625 -44.28125 27.484375 -44.28125 C 26.148438 -44.28125 24.859375 -43.84375 23.609375 -42.96875 C 22.359375 -42.09375 21.175781 -40.875 20.0625 -39.3125 C 18.113281 -36.476562 16.503906 -32.78125 15.234375 -28.21875 C 14.648438 -26.207031 14.210938 -24.210938 13.921875 -22.234375 C 13.628906 -20.265625 13.484375 -18.484375 13.484375 -16.890625 C 13.484375 -13.578125 14.097656 -11.332031 15.328125 -10.15625 C 15.753906 -9.695312 16.226562 -9.398438 16.75 -9.265625 C 17.269531 -9.140625 17.851562 -9.078125 18.5 -9.078125 Z M 18.5 -9.078125 "/></g></g></g><g fill="#ad1b0e" fill-opacity="1"><g transform="translate(255.23711, 270.847849)"><g><path d="M 15.578125 25 C 14.015625 25 12.554688 24.796875 11.203125 24.390625 C 9.859375 23.984375 8.695312 23.375 7.71875 22.5625 C 6.675781 21.75 5.859375 20.726562 5.265625 19.5 C 4.679688 18.28125 4.390625 16.875 4.390625 15.28125 C 4.390625 11.507812 6.164062 8.269531 9.71875 5.5625 C 12.382812 3.582031 16.046875 1.859375 20.703125 0.390625 L 21.921875 -4.984375 C 19.972656 -2.835938 17.859375 -1.320312 15.578125 -0.4375 C 13.816406 0.25 11.925781 0.59375 9.90625 0.59375 C 6.71875 0.59375 4.195312 -0.351562 2.34375 -2.25 C 0.257812 -4.332031 -0.78125 -7.375 -0.78125 -11.375 C -0.78125 -13.257812 -0.519531 -15.441406 0 -17.921875 L 6.78125 -50 L 21.1875 -50 L 14.015625 -16.015625 C 13.816406 -15.203125 13.71875 -14.359375 13.71875 -13.484375 C 13.71875 -12.210938 13.929688 -11.203125 14.359375 -10.453125 C 14.847656 -9.535156 15.628906 -9.078125 16.703125 -9.078125 C 18.460938 -9.078125 20.039062 -9.859375 21.4375 -11.421875 C 22.644531 -12.753906 23.671875 -14.707031 24.515625 -17.28125 L 31.5 -50 L 45.90625 -50 L 35.984375 -3.609375 C 39.140625 -4.648438 41.664062 -6.210938 43.5625 -8.296875 C 45.601562 -10.546875 47.273438 -13.753906 48.578125 -17.921875 L 52.78125 -17.921875 C 50.988281 -11.992188 48.320312 -7.421875 44.78125 -4.203125 C 42.175781 -1.859375 38.953125 -0.195312 35.109375 0.78125 L 33.59375 8.015625 C 32.320312 14.390625 29.785156 19.007812 25.984375 21.875 C 23.210938 23.957031 19.742188 25 15.578125 25 Z M 13.28125 17.1875 C 14.289062 17.1875 15.363281 16.453125 16.5 14.984375 C 17.613281 13.554688 18.476562 11.328125 19.09375 8.296875 L 19.671875 5.421875 C 16.648438 6.554688 14.390625 7.710938 12.890625 8.890625 C 10.898438 10.390625 9.90625 12.066406 9.90625 13.921875 C 9.90625 14.796875 10.1875 15.523438 10.75 16.109375 C 11.363281 16.828125 12.207031 17.1875 13.28125 17.1875 Z M 13.28125 17.1875 "/></g></g></g><g fill="#ad1b0e" fill-opacity="1"><g transform="translate(303.819199, 270.847849)"><g><path d="M 14.59375 0.390625 C 9.644531 0.390625 5.820312 -0.8125 3.125 -3.21875 C 0.09375 -5.894531 -1.421875 -9.945312 -1.421875 -15.375 C -1.421875 -17.425781 -1.207031 -19.695312 -0.78125 -22.1875 C -0.351562 -24.675781 0.296875 -27.191406 1.171875 -29.734375 C 3.191406 -35.785156 6.070312 -40.617188 9.8125 -44.234375 C 14.34375 -48.660156 19.734375 -50.875 25.984375 -50.875 C 34.535156 -50.875 38.8125 -45.550781 38.8125 -34.90625 L 38.8125 -34.8125 C 39.007812 -34.75 39.175781 -34.71875 39.3125 -34.71875 L 39.890625 -34.71875 C 42.109375 -34.71875 44.726562 -35.335938 47.75 -36.578125 C 50.425781 -37.679688 52.953125 -39.0625 55.328125 -40.71875 L 56.203125 -37.984375 C 54.242188 -35.929688 51.726562 -34.1875 48.65625 -32.75 C 45.582031 -31.320312 42.191406 -30.300781 38.484375 -29.6875 C 38.085938 -25.164062 37.207031 -21.039062 35.84375 -17.3125 C 34.476562 -13.582031 32.71875 -10.382812 30.5625 -7.71875 C 28.445312 -5.113281 26.019531 -3.109375 23.28125 -1.703125 C 20.550781 -0.304688 17.65625 0.390625 14.59375 0.390625 Z M 18.609375 -8.59375 C 19.773438 -8.59375 20.96875 -9.117188 22.1875 -10.171875 C 23.414062 -11.234375 24.566406 -12.707031 25.640625 -14.59375 C 26.710938 -16.488281 27.640625 -18.703125 28.421875 -21.234375 C 29.203125 -23.773438 29.785156 -26.492188 30.171875 -29.390625 C 29.203125 -29.648438 28.507812 -30.140625 28.09375 -30.859375 C 27.6875 -31.578125 27.484375 -32.488281 27.484375 -33.59375 C 27.484375 -34.957031 27.757812 -36.09375 28.3125 -37 C 28.875 -37.914062 29.640625 -38.585938 30.609375 -39.015625 C 30.484375 -41.128906 30.144531 -42.644531 29.59375 -43.5625 C 29.300781 -44.007812 28.929688 -44.332031 28.484375 -44.53125 C 28.046875 -44.726562 27.488281 -44.828125 26.8125 -44.828125 C 24.5625 -44.828125 22.363281 -43.132812 20.21875 -39.75 C 18.226562 -36.6875 16.597656 -32.910156 15.328125 -28.421875 C 14.097656 -24.023438 13.484375 -20.117188 13.484375 -16.703125 C 13.484375 -15.035156 13.570312 -13.679688 13.75 -12.640625 C 13.925781 -11.597656 14.226562 -10.785156 14.65625 -10.203125 C 15.039062 -9.617188 15.539062 -9.203125 16.15625 -8.953125 C 16.78125 -8.710938 17.597656 -8.59375 18.609375 -8.59375 Z M 18.609375 -8.59375 "/></g></g></g><g fill="#cf6317" fill-opacity="1"><g transform="translate(115.050407, 204.72542)"><g><path d="M 9.609375 0.46875 C 6.566406 0.46875 4.109375 -0.484375 2.234375 -2.390625 C 0.0351562 -4.628906 -1.0625 -7.960938 -1.0625 -12.390625 C -1.0625 -14.265625 -0.867188 -16.242188 -0.484375 -18.328125 C -0.109375 -20.410156 0.441406 -22.46875 1.171875 -24.5 C 2.835938 -29.082031 5.117188 -32.78125 8.015625 -35.59375 C 11.347656 -38.789062 15.1875 -40.390625 19.53125 -40.390625 C 21.695312 -40.390625 23.316406 -40.019531 24.390625 -39.28125 C 25.472656 -38.539062 26.015625 -37.554688 26.015625 -36.328125 L 26.015625 -36.015625 L 29.921875 -54.421875 L 41.765625 -56.015625 L 32.578125 -12.8125 C 32.347656 -12.03125 32.234375 -11.171875 32.234375 -10.234375 C 32.234375 -9.140625 32.492188 -8.367188 33.015625 -7.921875 C 33.535156 -7.484375 34.367188 -7.265625 35.515625 -7.265625 C 36.992188 -7.265625 38.320312 -7.929688 39.5 -9.265625 C 40.488281 -10.429688 41.320312 -12.125 42 -14.34375 L 45.359375 -14.34375 C 43.953125 -10.332031 42.21875 -7.164062 40.15625 -4.84375 C 38.414062 -2.914062 36.476562 -1.578125 34.34375 -0.828125 C 32.800781 -0.273438 31.117188 0 29.296875 0 C 27.085938 0 25.304688 -0.582031 23.953125 -1.75 C 22.597656 -2.925781 21.765625 -4.632812 21.453125 -6.875 C 20.015625 -4.71875 18.460938 -3.050781 16.796875 -1.875 C 14.640625 -0.3125 12.242188 0.46875 9.609375 0.46875 Z M 14.8125 -7.265625 C 15.382812 -7.265625 16 -7.40625 16.65625 -7.6875 C 17.320312 -7.976562 17.957031 -8.382812 18.5625 -8.90625 C 19.96875 -10.1875 20.90625 -11.851562 21.375 -13.90625 L 21.375 -14.34375 L 25.28125 -32.65625 C 25.09375 -33.382812 24.832031 -33.972656 24.5 -34.421875 C 23.945312 -35.097656 23.113281 -35.4375 22 -35.4375 C 20.925781 -35.4375 19.890625 -35.082031 18.890625 -34.375 C 17.890625 -33.675781 16.945312 -32.703125 16.0625 -31.453125 C 14.5 -29.179688 13.207031 -26.222656 12.1875 -22.578125 C 11.71875 -20.960938 11.363281 -19.367188 11.125 -17.796875 C 10.894531 -16.222656 10.78125 -14.796875 10.78125 -13.515625 C 10.78125 -10.859375 11.273438 -9.0625 12.265625 -8.125 C 12.609375 -7.757812 12.988281 -7.523438 13.40625 -7.421875 C 13.820312 -7.316406 14.289062 -7.265625 14.8125 -7.265625 Z M 14.8125 -7.265625 "/></g></g></g><g fill="#cf6317" fill-opacity="1"><g transform="translate(157.038491, 204.72542)"><g><path d="M 11.453125 0.46875 C 7.515625 0.46875 4.476562 -0.519531 2.34375 -2.5 C 0.0703125 -4.613281 -1.0625 -7.859375 -1.0625 -12.234375 C -1.0625 -13.867188 -0.894531 -15.6875 -0.5625 -17.6875 C -0.238281 -19.695312 0.25 -21.707031 0.90625 -23.71875 C 1.632812 -25.957031 2.5625 -28.078125 3.6875 -30.078125 C 4.820312 -32.085938 6.144531 -33.859375 7.65625 -35.390625 C 11.144531 -38.929688 15.441406 -40.703125 20.546875 -40.703125 C 23.804688 -40.703125 26.175781 -39.921875 27.65625 -38.359375 C 28.800781 -37.140625 29.375 -35.367188 29.375 -33.046875 C 29.375 -30.785156 28.878906 -28.65625 27.890625 -26.65625 C 26.898438 -24.664062 25.535156 -22.90625 23.796875 -21.375 C 22.046875 -19.863281 20.0625 -18.65625 17.84375 -17.75 C 15.632812 -16.851562 13.347656 -16.328125 10.984375 -16.171875 C 10.847656 -14.816406 10.78125 -13.75 10.78125 -12.96875 C 10.78125 -10.363281 11.273438 -8.566406 12.265625 -7.578125 C 13.128906 -6.691406 14.5625 -6.25 16.5625 -6.25 C 19.457031 -6.25 22.101562 -7.03125 24.5 -8.59375 C 25.507812 -9.25 26.484375 -10.023438 27.421875 -10.921875 C 28.359375 -11.816406 29.453125 -12.957031 30.703125 -14.34375 L 33.4375 -14.34375 C 30.914062 -10.070312 28.015625 -6.671875 24.734375 -4.140625 C 20.691406 -1.066406 16.265625 0.46875 11.453125 0.46875 Z M 11.609375 -20 C 13.085938 -20.101562 14.53125 -20.53125 15.9375 -21.28125 C 17.34375 -22.039062 18.59375 -23.035156 19.6875 -24.265625 C 20.78125 -25.515625 21.640625 -26.910156 22.265625 -28.453125 C 22.890625 -30.003906 23.203125 -31.585938 23.203125 -33.203125 C 23.203125 -34.273438 23.050781 -35.085938 22.75 -35.640625 C 22.457031 -36.203125 21.945312 -36.484375 21.21875 -36.484375 C 20.25 -36.484375 19.273438 -36.015625 18.296875 -35.078125 C 17.328125 -34.140625 16.382812 -32.851562 15.46875 -31.21875 C 14.632812 -29.675781 13.878906 -27.925781 13.203125 -25.96875 C 12.523438 -24.019531 11.992188 -22.03125 11.609375 -20 Z M 11.609375 -20 "/></g></g></g><g fill="#cf6317" fill-opacity="1"><g transform="translate(187.738615, 204.72542)"><g><path d="M 7.9375 0.46875 C 5.382812 0.46875 3.363281 -0.285156 1.875 -1.796875 C 0.207031 -3.460938 -0.625 -5.898438 -0.625 -9.109375 C -0.625 -10.617188 -0.414062 -12.363281 0 -14.34375 L 8.5625 -54.421875 L 20.390625 -56.015625 L 11.21875 -12.8125 C 11.007812 -12.132812 10.90625 -11.273438 10.90625 -10.234375 C 10.90625 -9.140625 11.15625 -8.367188 11.65625 -7.921875 C 12.164062 -7.484375 12.992188 -7.265625 14.140625 -7.265625 C 14.921875 -7.265625 15.679688 -7.441406 16.421875 -7.796875 C 17.171875 -8.148438 17.859375 -8.640625 18.484375 -9.265625 C 19.753906 -10.535156 20.71875 -12.226562 21.375 -14.34375 L 24.734375 -14.34375 C 23.296875 -10.300781 21.5 -7.082031 19.34375 -4.6875 C 17.519531 -2.738281 15.460938 -1.332031 13.171875 -0.46875 C 11.503906 0.15625 9.757812 0.46875 7.9375 0.46875 Z M 7.9375 0.46875 "/></g></g></g></svg>