<svg xmlns="http://www.w3.org/2000/svg" xmlns:xlink="http://www.w3.org/1999/xlink" width="500" zoomAndPan="magnify" viewBox="0 0 375 374.999991" height="500" preserveAspectRatio="xMidYMid meet" version="1.0"><defs><clipPath id="a5e9087072"><path d="M -94.902344 93.367188 L 93.367188 -94.902344 L 469.902344 281.632812 L 281.632812 469.902344 Z M -94.902344 93.367188 " clip-rule="nonzero"/></clipPath><clipPath id="c5d977423b"><path d="M -0.765625 -0.765625 L 469.902344 281.632812 L 281.632812 469.902344 Z M -0.765625 -0.765625 " clip-rule="nonzero"/></clipPath><clipPath id="aa15d3d686"><path d="M 0 0 L 375 0 L 375 375 L 0 375 Z M 0 0 " clip-rule="nonzero"/></clipPath><clipPath id="30353c80ad"><path d="M -94.902344 93.367188 L 93.367188 -94.902344 L 469.902344 281.632812 L 281.632812 469.902344 Z M -94.902344 93.367188 " clip-rule="nonzero"/></clipPath><clipPath id="a95ae5cdaf"><path d="M -0.765625 -0.765625 L 469.902344 281.632812 L 281.632812 469.902344 Z M -0.765625 -0.765625 " clip-rule="nonzero"/></clipPath><clipPath id="f44fac739d"><rect x="0" width="375" y="0" height="375"/></clipPath><clipPath id="3734480b99"><path d="M -120.160156 67.015625 L 120.160156 -71.734375 L 386.820312 390.136719 L 146.5 528.886719 Z M -120.160156 67.015625 " clip-rule="nonzero"/></clipPath><clipPath id="8ae010ebde"><path d="M 0 -2.359375 L 386.410156 389.425781 L 146.089844 528.175781 Z M 0 -2.359375 " clip-rule="nonzero"/></clipPath><clipPath id="7c7be51772"><path d="M 0 0 L 375 0 L 375 375 L 0 375 Z M 0 0 " clip-rule="nonzero"/></clipPath><clipPath id="668def1378"><path d="M -120.160156 67.015625 L 120.160156 -71.734375 L 386.820312 390.136719 L 146.5 528.886719 Z M -120.160156 67.015625 " clip-rule="nonzero"/></clipPath><clipPath id="f84245b68b"><path d="M 0 -2.359375 L 386.410156 389.425781 L 146.089844 528.175781 Z M 0 -2.359375 " clip-rule="nonzero"/></clipPath><clipPath id="65399ae440"><rect x="0" width="375" y="0" height="375"/></clipPath><clipPath id="5a6e7ebe61"><path d="M 0 0 L 273 0 L 273 375 L 0 375 Z M 0 0 " clip-rule="nonzero"/></clipPath><clipPath id="052a3668ce"><path d="M -133.09375 35.257812 L 134.953125 -36.566406 L 272.984375 478.582031 L 4.941406 550.40625 Z M -133.09375 35.257812 " clip-rule="nonzero"/></clipPath><clipPath id="6eaf6841a1"><path d="M 0.929688 -0.652344 L 272.773438 477.789062 L 4.730469 549.613281 Z M 0.929688 -0.652344 " clip-rule="nonzero"/></clipPath><clipPath id="daf28e1628"><path d="M 0.71875 0 L 272.878906 0 L 272.878906 375 L 0.71875 375 Z M 0.71875 0 " clip-rule="nonzero"/></clipPath><clipPath id="efcbd0f35c"><path d="M -133.09375 35.257812 L 134.953125 -36.566406 L 272.984375 478.582031 L 4.941406 550.40625 Z M -133.09375 35.257812 " clip-rule="nonzero"/></clipPath><clipPath id="2928f6c437"><path d="M 0.929688 -0.652344 L 272.773438 477.789062 L 4.730469 549.613281 Z M 0.929688 -0.652344 " clip-rule="nonzero"/></clipPath><clipPath id="9dd2b25073"><rect x="0" width="273" y="0" height="375"/></clipPath><clipPath id="f1f7e6ba2e"><path d="M 0 0 L 138.75 0 L 138.75 375 L 0 375 Z M 0 0 " clip-rule="nonzero"/></clipPath><clipPath id="ab1b89cfde"><path d="M 0 -9.726562 L 138.75 522.773438 L -138.75 522.773438 Z M 0 -9.726562 " clip-rule="nonzero"/></clipPath><clipPath id="c8af562cca"><path d="M 0 0 L 138.75 0 L 138.75 375 L 0 375 Z M 0 0 " clip-rule="nonzero"/></clipPath><clipPath id="e68f430678"><path d="M 0 -9.726562 L 138.75 522.773438 L -138.75 522.773438 Z M 0 -9.726562 " clip-rule="nonzero"/></clipPath><clipPath id="4525f319c1"><rect x="0" width="139" y="0" height="375"/></clipPath><clipPath id="eaee9f7fa6"><path d="M -70.636719 120.160156 L 68.113281 -120.160156 L 529.980469 146.5 L 391.230469 386.820312 Z M -70.636719 120.160156 " clip-rule="nonzero"/></clipPath><clipPath id="1092290d0c"><path d="M -1.261719 0 L 529.269531 146.089844 L 390.519531 386.410156 Z M -1.261719 0 " clip-rule="nonzero"/></clipPath><clipPath id="dabc167990"><path d="M 0 0 L 375 0 L 375 375 L 0 375 Z M 0 0 " clip-rule="nonzero"/></clipPath><clipPath id="144c71f5ab"><path d="M -70.636719 120.160156 L 68.113281 -120.160156 L 529.980469 146.5 L 391.230469 386.820312 Z M -70.636719 120.160156 " clip-rule="nonzero"/></clipPath><clipPath id="1a41a2a623"><path d="M -1.261719 0 L 529.269531 146.089844 L 390.519531 386.410156 Z M -1.261719 0 " clip-rule="nonzero"/></clipPath><clipPath id="e2e32f50fa"><rect x="0" width="375" y="0" height="375"/></clipPath><clipPath id="0ae5a966a3"><path d="M 0 0 L 375 0 L 375 273 L 0 273 Z M 0 0 " clip-rule="nonzero"/></clipPath><clipPath id="966cc3945a"><path d="M -36.699219 134.21875 L 35.125 -133.824219 L 550.273438 4.210938 L 478.449219 272.253906 Z M -36.699219 134.21875 " clip-rule="nonzero"/></clipPath><clipPath id="9fe838bc4c"><path d="M -0.785156 0.199219 L 549.480469 3.996094 L 477.65625 272.042969 Z M -0.785156 0.199219 " clip-rule="nonzero"/></clipPath><clipPath id="7372f74c84"><path d="M 0 0 L 375 0 L 375 272 L 0 272 Z M 0 0 " clip-rule="nonzero"/></clipPath><clipPath id="1f48944d44"><path d="M -36.699219 134.21875 L 35.125 -133.824219 L 550.273438 4.210938 L 478.449219 272.253906 Z M -36.699219 134.21875 " clip-rule="nonzero"/></clipPath><clipPath id="197b705f2c"><path d="M -0.785156 0.199219 L 549.480469 3.996094 L 477.65625 272.042969 Z M -0.785156 0.199219 " clip-rule="nonzero"/></clipPath><clipPath id="6616fc48b5"><rect x="0" width="375" y="0" height="273"/></clipPath><clipPath id="dbc06f6d33"><path d="M 0 0 L 375 0 L 375 138.75 L 0 138.75 Z M 0 0 " clip-rule="nonzero"/></clipPath><clipPath id="ea518404f4"><path d="M 0 0 L 532.5 -138.75 L 532.5 138.75 Z M 0 0 " clip-rule="nonzero"/></clipPath><clipPath id="4c751d657a"><path d="M 0 0 L 375 0 L 375 138.75 L 0 138.75 Z M 0 0 " clip-rule="nonzero"/></clipPath><clipPath id="7abc40e1c2"><path d="M 0 0 L 532.5 -138.75 L 532.5 138.75 Z M 0 0 " clip-rule="nonzero"/></clipPath><clipPath id="17354ee6de"><rect x="0" width="375" y="0" height="139"/></clipPath></defs><rect x="-37.5" width="450" fill="#ffffff" y="-37.499999" height="449.999989" fill-opacity="1"/><rect x="-37.5" width="450" fill="#ffffff" y="-37.499999" height="449.999989" fill-opacity="1"/><g clip-path="url(#a5e9087072)"><g clip-path="url(#c5d977423b)"><g transform="matrix(1, 0, 0, 1, 0, 0)"><g clip-path="url(#f44fac739d)"><g clip-path="url(#aa15d3d686)"><g clip-path="url(#30353c80ad)"><g clip-path="url(#a95ae5cdaf)"><path fill="#5c8fd6" d="M -94.902344 93.367188 L 93.367188 -94.902344 L 469.902344 281.632812 L 281.632812 469.902344 Z M -94.902344 93.367188 " fill-opacity="1" fill-rule="nonzero"/></g></g></g></g></g></g></g><g clip-path="url(#3734480b99)"><g clip-path="url(#8ae010ebde)"><g transform="matrix(1, 0, 0, 1, 0, 0)"><g clip-path="url(#65399ae440)"><g clip-path="url(#7c7be51772)"><g clip-path="url(#668def1378)"><g clip-path="url(#f84245b68b)"><path fill="#3366cc" d="M -120.160156 67.015625 L 120.160156 -71.734375 L 386.277344 389.195312 L 145.957031 527.945312 Z M -120.160156 67.015625 " fill-opacity="1" fill-rule="nonzero"/></g></g></g></g></g></g></g><g clip-path="url(#5a6e7ebe61)"><g clip-path="url(#052a3668ce)"><g clip-path="url(#6eaf6841a1)"><g><g clip-path="url(#9dd2b25073)"><g clip-path="url(#daf28e1628)"><g clip-path="url(#efcbd0f35c)"><g clip-path="url(#2928f6c437)"><path fill="#2947a3" d="M -133.09375 35.257812 L 134.953125 -36.566406 L 272.703125 477.535156 L 4.660156 549.359375 Z M -133.09375 35.257812 " fill-opacity="1" fill-rule="nonzero"/></g></g></g></g></g></g></g></g><g clip-path="url(#f1f7e6ba2e)"><g clip-path="url(#ab1b89cfde)"><g transform="matrix(1, 0, 0, 1, 0, 0)"><g clip-path="url(#4525f319c1)"><g clip-path="url(#c8af562cca)"><g clip-path="url(#e68f430678)"><path fill="#1f2e7a" d="M -138.75 -9.726562 L 138.75 -9.726562 L 138.75 522.511719 L -138.75 522.511719 Z M -138.75 -9.726562 " fill-opacity="1" fill-rule="nonzero"/></g></g></g></g></g></g><g clip-path="url(#eaee9f7fa6)"><g clip-path="url(#1092290d0c)"><g transform="matrix(1, 0, 0, 1, 0, 0)"><g clip-path="url(#e2e32f50fa)"><g clip-path="url(#dabc167990)"><g clip-path="url(#144c71f5ab)"><g clip-path="url(#1a41a2a623)"><path fill="#85b3e0" d="M -70.636719 120.160156 L 68.113281 -120.160156 L 529.042969 145.957031 L 390.292969 386.277344 Z M -70.636719 120.160156 " fill-opacity="1" fill-rule="nonzero"/></g></g></g></g></g></g></g><g clip-path="url(#0ae5a966a3)"><g clip-path="url(#966cc3945a)"><g clip-path="url(#9fe838bc4c)"><g transform="matrix(1, 0, 0, 1, 0, 0)"><g clip-path="url(#6616fc48b5)"><g clip-path="url(#7372f74c84)"><g clip-path="url(#1f48944d44)"><g clip-path="url(#197b705f2c)"><path fill="#add1eb" d="M -36.699219 134.21875 L 35.125 -133.824219 L 549.226562 3.929688 L 477.402344 271.972656 Z M -36.699219 134.21875 " fill-opacity="1" fill-rule="nonzero"/></g></g></g></g></g></g></g></g><g clip-path="url(#dbc06f6d33)"><g clip-path="url(#ea518404f4)"><g transform="matrix(1, 0, 0, 1, 0, 0)"><g clip-path="url(#17354ee6de)"><g clip-path="url(#4c751d657a)"><g clip-path="url(#7abc40e1c2)"><path fill="#d6ebf5" d="M 0 138.75 L 0 -138.75 L 532.234375 -138.75 L 532.234375 138.75 Z M 0 138.75 " fill-opacity="1" fill-rule="nonzero"/></g></g></g></g></g></g></svg>